<svg version="1.1" id="Layer_1" xmlns="http://www.w3.org/2000/svg" xmlns:xlink="http://www.w3.org/1999/xlink" x="0px" y="0px"
	 width="100%" viewBox="0 0 50 50" enable-background="new 0 0 50 50" xml:space="preserve">
<path fill="#FFFFFF" opacity="1.000000" stroke="none" 
	d="
M1.000000,25.000057 
	C1.000000,16.666735 1.000000,8.833402 1.000000,1.000051 
	C17.666643,1.000034 34.333286,1.000034 50.999947,1.000017 
	C50.999966,17.666643 50.999966,34.333286 50.999985,50.999947 
	C34.333355,50.999966 17.666712,50.999966 1.000034,50.999985 
	C1.000000,42.500015 1.000000,34.000031 1.000000,25.000057 
M5.298511,24.753559 
	C5.298511,24.753559 5.507469,24.844015 5.139732,25.133211 
	C4.816224,26.753958 4.492717,28.374702 4.020086,30.921869 
	C4.020086,36.522556 4.020086,42.123245 4.020086,49.089737 
	C7.261616,47.875061 9.652287,46.979218 12.967149,46.015118 
	C17.632309,46.033535 22.297470,46.051952 27.037069,46.934021 
	C33.915749,47.434883 40.794426,47.935749 47.832958,48.448250 
	C47.832958,41.597813 47.832958,35.797039 47.969002,29.292831 
	C47.295330,27.855173 46.621658,26.417515 46.536568,24.653465 
	C46.607285,23.773739 46.678001,22.894011 47.195244,21.270712 
	C47.560417,15.613691 47.925591,9.956670 48.299202,4.168911 
	C43.601189,4.168911 39.801430,4.168911 35.074394,4.021172 
	C24.808853,4.021172 14.543312,4.021172 4.158605,4.021172 
	C4.158605,9.395606 4.158605,14.198202 4.012471,19.687670 
	C4.126531,20.604076 4.240590,21.520481 4.228712,23.074532 
	C4.552909,23.565573 4.877107,24.056612 5.298511,24.753559 
z"/>
<path fill="#444A52" opacity="1.000000" stroke="none" 
	d="
M36.001678,4.168910 
	C39.801430,4.168911 43.601189,4.168911 48.299202,4.168911 
	C47.925591,9.956670 47.560417,15.613691 46.613998,21.642490 
	C45.316849,22.004343 44.600948,21.994421 43.798363,21.609108 
	C37.860989,18.777294 35.757286,19.536388 33.216454,24.979767 
	C33.177212,24.952909 33.082455,24.961044 32.946918,24.759960 
	C32.603275,24.299582 32.342545,24.114357 32.014923,23.657946 
	C31.535019,22.672230 31.069384,22.031771 30.603750,21.391314 
	C30.078743,22.257292 29.553734,23.123268 28.907494,24.072544 
	C28.786261,24.155846 28.529341,24.299154 28.301552,24.108948 
	C27.372826,22.975904 26.671890,22.033070 25.977264,20.665005 
	C25.270023,19.173429 24.533548,17.173481 23.846594,17.190346 
	C18.923285,17.311243 14.004904,17.795183 9.103132,18.330290 
	C8.700486,18.374249 8.432538,19.652088 8.145786,20.627962 
	C8.150586,21.262861 8.111603,21.626406 7.719806,21.996723 
	C6.896496,22.005901 6.426001,22.008308 5.547807,22.089146 
	C4.878289,22.257345 4.616469,22.347116 4.354649,22.436888 
	C4.240590,21.520481 4.126531,20.604076 4.419402,19.280764 
	C5.873379,17.462862 6.768188,15.895045 8.012412,14.687160 
	C9.144483,13.588153 10.656134,12.880145 12.278234,12.196324 
	C14.797330,13.809570 17.166977,17.333353 19.324377,11.835562 
	C26.641497,5.938681 26.974525,15.284370 30.266281,16.465975 
	C33.757572,15.382889 36.701591,14.469581 38.916752,13.782383 
	C37.830418,10.199821 36.916046,7.184366 36.001678,4.168910 
z"/>
<path fill="#444B55" opacity="1.000000" stroke="none" 
	d="
M12.000463,11.999783 
	C10.656134,12.880145 9.144483,13.588153 8.012412,14.687160 
	C6.768188,15.895045 5.873379,17.462862 4.492468,18.937328 
	C4.158605,14.198202 4.158605,9.395606 4.158605,4.021172 
	C14.543312,4.021172 24.808853,4.021172 35.538036,4.095041 
	C36.916046,7.184366 37.830418,10.199821 38.916752,13.782383 
	C36.701591,14.469581 33.757572,15.382889 30.266281,16.465975 
	C26.974525,15.284370 26.641497,5.938681 18.985176,11.784531 
	C17.215204,10.940618 16.224991,9.770419 14.968303,9.098916 
	C14.120674,8.645991 12.897083,8.896660 11.841673,8.832588 
	C11.894603,9.888319 11.947534,10.944051 12.000463,11.999783 
z"/>
<path fill="#434B53" opacity="1.000000" stroke="none" 
	d="
M47.832958,29.996264 
	C47.832958,35.797039 47.832958,41.597813 47.832958,48.448250 
	C40.794426,47.935749 33.915749,47.434883 27.061068,46.294174 
	C27.085066,45.654327 27.060534,45.221386 27.396114,45.134964 
	C28.321497,44.704273 28.911299,44.360012 29.789255,44.009865 
	C30.655121,44.016098 31.232830,44.028225 32.103565,44.205425 
	C33.255634,44.480202 34.114685,44.589901 35.350872,44.786926 
	C36.494293,44.812752 37.260574,44.751259 38.369221,44.762489 
	C39.444454,44.450649 40.177322,44.066086 41.070332,43.709549 
	C41.230473,43.737576 41.553684,43.773029 41.978683,43.780239 
	C42.936131,40.489948 43.803844,37.202251 43.900585,33.892017 
	C43.986160,30.963884 44.845383,29.614845 47.832958,29.996264 
z"/>
<path fill="#424A53" opacity="1.000000" stroke="none" 
	d="
M12.042960,46.083378 
	C9.652287,46.979218 7.261616,47.875061 4.020086,49.089737 
	C4.020086,42.123245 4.020086,36.522556 4.506107,30.463020 
	C5.993298,31.090284 7.640345,32.060410 7.860581,33.286766 
	C8.312844,35.805138 7.729010,38.503880 8.131231,41.039616 
	C8.303557,42.126019 9.873162,42.990784 10.943148,44.216202 
	C11.348590,44.751827 11.618775,45.027508 11.896245,45.504395 
	C11.903530,45.705605 12.042960,46.083378 12.042960,46.083378 
z"/>
<path fill="#3D4550" opacity="1.000000" stroke="none" 
	d="
M10.807892,43.956253 
	C9.873162,42.990784 8.303557,42.126019 8.131231,41.039616 
	C7.729010,38.503880 8.312844,35.805138 7.860581,33.286766 
	C7.640345,32.060410 5.993298,31.090284 4.580668,29.999809 
	C4.492717,28.374702 4.816224,26.753958 5.883689,24.708923 
	C7.173461,23.703072 7.719276,23.121504 8.515799,22.776243 
	C9.489316,23.894665 10.212125,24.776781 10.948809,25.887836 
	C10.984332,26.425810 11.000845,26.735117 11.003513,27.268333 
	C10.994806,27.491968 10.980330,27.939342 10.979095,28.403919 
	C11.045903,32.575726 11.113944,36.282955 11.102009,40.372032 
	C11.084823,41.526768 11.147613,42.299656 11.184452,43.305901 
	C11.158503,43.539249 11.268044,43.995872 11.157379,43.935177 
	C11.046714,43.874481 10.807892,43.956253 10.807892,43.956253 
z"/>
<path fill="#3E4651" opacity="1.000000" stroke="none" 
	d="
M47.900978,29.644547 
	C44.845383,29.614845 43.986160,30.963884 43.900585,33.892017 
	C43.803844,37.202251 42.936131,40.489948 42.012012,43.334404 
	C41.631332,41.084438 41.830227,39.264389 41.612541,37.495605 
	C41.211559,34.237503 40.565773,31.009523 40.021271,27.452633 
	C40.009666,26.714075 39.998791,26.291876 40.258728,25.768139 
	C41.416351,24.988525 42.303158,24.310450 43.552788,23.760498 
	C44.593071,24.252367 45.270527,24.616112 45.947983,24.979856 
	C46.621658,26.417515 47.295330,27.855173 47.900978,29.644547 
z"/>
<path fill="#746F6A" opacity="1.000000" stroke="none" 
	d="
M12.505054,46.049248 
	C12.042960,46.083378 11.903530,45.705605 12.348480,45.397545 
	C15.552052,44.986584 18.310675,44.883682 21.402313,44.817757 
	C22.173328,44.781193 22.611326,44.707649 23.380028,44.708397 
	C24.152006,44.708004 24.593281,44.633324 25.375282,44.664474 
	C26.164183,44.920666 26.612358,45.071026 27.060534,45.221386 
	C27.060534,45.221386 27.085066,45.654327 27.023849,45.862350 
	C22.297470,46.051952 17.632309,46.033535 12.505054,46.049248 
z"/>
<path fill="#37404B" opacity="1.000000" stroke="none" 
	d="
M46.242279,24.816662 
	C45.270527,24.616112 44.593071,24.252367 43.638554,23.473515 
	C43.536011,22.700438 43.710529,22.342466 43.885044,21.984497 
	C44.600948,21.994421 45.316849,22.004343 46.390736,22.014275 
	C46.678001,22.894011 46.607285,23.773739 46.242279,24.816662 
z"/>
<path fill="#37404B" opacity="1.000000" stroke="none" 
	d="
M8.265091,22.539938 
	C7.719276,23.121504 7.173461,23.703072 6.067557,24.564327 
	C5.507469,24.844015 5.298511,24.753559 5.522879,24.274876 
	C5.816666,23.201031 5.886085,22.605873 5.955504,22.010714 
	C6.426001,22.008308 6.896496,22.005901 7.817733,22.116735 
	C8.268473,22.229977 8.265091,22.539938 8.265091,22.539938 
z"/>
<path fill="#62666B" opacity="1.000000" stroke="none" 
	d="
M5.547807,22.089146 
	C5.886085,22.605873 5.816666,23.201031 5.474276,24.171921 
	C4.877107,24.056612 4.552909,23.565573 4.291680,22.755711 
	C4.616469,22.347116 4.878289,22.257345 5.547807,22.089146 
z"/>
<path fill="#DAC09D" opacity="1.000000" stroke="none" 
	d="
M8.515799,22.776243 
	C8.265091,22.539938 8.268473,22.229977 8.170546,22.109962 
	C8.111603,21.626406 8.150586,21.262861 8.549129,20.529819 
	C12.388989,20.124638 15.874740,19.957172 19.347622,20.100822 
	C21.565247,20.192549 23.763832,20.744577 25.970955,21.090235 
	C26.671890,22.033070 27.372826,22.975904 28.280689,24.284391 
	C28.440279,24.909321 28.512318,25.129690 28.321350,25.374784 
	C26.632786,25.560236 25.326601,25.682058 23.610859,25.727972 
	C19.742561,25.684753 16.283823,25.717442 12.528299,25.599478 
	C11.799321,25.518848 11.367128,25.588871 10.934935,25.658895 
	C10.212125,24.776781 9.489316,23.894665 8.515799,22.776243 
z"/>
<path fill="#3A434E" opacity="1.000000" stroke="none" 
	d="
M25.977264,20.665005 
	C23.763832,20.744577 21.565247,20.192549 19.347622,20.100822 
	C15.874740,19.957172 12.388989,20.124638 8.505346,20.258465 
	C8.432538,19.652088 8.700486,18.374249 9.103132,18.330290 
	C14.004904,17.795183 18.923285,17.311243 23.846594,17.190346 
	C24.533548,17.173481 25.270023,19.173429 25.977264,20.665005 
z"/>
<path fill="#DCC29E" opacity="1.000000" stroke="none" 
	d="
M43.798363,21.609108 
	C43.710529,22.342466 43.536011,22.700438 43.275734,23.345390 
	C42.303158,24.310450 41.416351,24.988525 39.885963,25.605480 
	C37.246822,25.365114 35.251259,25.185871 33.255695,25.006626 
	C35.757286,19.536388 37.860989,18.777294 43.798363,21.609108 
z"/>
<path fill="#43465A" opacity="1.000000" stroke="none" 
	d="
M12.278234,12.196323 
	C11.947534,10.944051 11.894603,9.888319 11.841673,8.832588 
	C12.897083,8.896660 14.120674,8.645991 14.968303,9.098916 
	C16.224991,9.770419 17.215204,10.940618 18.658054,11.949556 
	C17.166977,17.333353 14.797330,13.809570 12.278234,12.196323 
z"/>
<path fill="#4A4E57" opacity="1.000000" stroke="none" 
	d="
M33.216454,24.979767 
	C35.251259,25.185871 37.246822,25.365114 39.615150,25.707018 
	C39.998791,26.291876 40.009666,26.714075 39.608124,27.551899 
	C37.793373,28.088562 36.391029,28.209600 34.662003,28.214149 
	C33.884335,27.999708 33.433361,27.901752 32.982296,27.447922 
	C33.015625,26.381716 33.049042,25.671379 33.082458,24.961044 
	C33.082455,24.961044 33.177212,24.952909 33.216454,24.979767 
z"/>
<path fill="#3E4651" opacity="1.000000" stroke="none" 
	d="
M32.946922,24.759960 
	C33.049042,25.671379 33.015625,26.381716 32.806717,27.567446 
	C32.631226,28.042841 32.210484,28.097172 31.815804,28.056112 
	C30.628817,28.003832 29.836514,27.992611 29.024998,27.978916 
	C29.005787,27.976440 29.026625,27.946615 29.004490,27.505985 
	C28.889479,26.480623 28.796606,25.895889 28.703732,25.311155 
	C28.512318,25.129690 28.440279,24.909321 28.508478,24.474598 
	C28.529341,24.299154 28.786261,24.155846 29.281771,24.077538 
	C30.527920,24.000555 31.278559,24.001881 32.029198,24.003204 
	C32.342545,24.114357 32.603275,24.299582 32.946922,24.759960 
z"/>
<path fill="#4D5156" opacity="1.000000" stroke="none" 
	d="
M32.014923,23.657946 
	C31.278559,24.001881 30.527920,24.000555 29.403004,23.994238 
	C29.553734,23.123268 30.078743,22.257292 30.603750,21.391314 
	C31.069384,22.031771 31.535019,22.672230 32.014923,23.657946 
z"/>
<path fill="#D2BA99" opacity="1.000000" stroke="none" 
	d="
M34.988689,28.330639 
	C36.391029,28.209600 37.793373,28.088562 39.608856,27.868258 
	C40.565773,31.009523 41.211559,34.237503 41.612541,37.495605 
	C41.830227,39.264389 41.631332,41.084438 41.587013,43.327194 
	C41.553684,43.773029 41.230473,43.737576 41.005455,43.406212 
	C38.767063,41.628761 38.375057,41.858665 38.026855,44.689762 
	C37.260574,44.751259 36.494293,44.812752 35.356365,44.450424 
	C34.988361,43.352589 34.992001,42.678577 34.996910,41.540680 
	C34.995014,36.828072 34.991852,32.579357 34.988689,28.330639 
z"/>
<path fill="#4A4E57" opacity="1.000000" stroke="none" 
	d="
M29.044209,27.981392 
	C29.836514,27.992611 30.628817,28.003832 31.778915,28.511799 
	C32.216194,33.348419 32.295685,37.688293 32.254868,42.355824 
	C32.026554,43.135769 31.918549,43.588058 31.810541,44.040352 
	C31.232830,44.028225 30.655121,44.016098 29.677727,43.679688 
	C29.170017,42.905151 29.061987,42.454903 29.055866,41.596180 
	C29.112795,39.790718 29.067812,38.393726 29.112377,36.668343 
	C29.141460,35.894196 29.080997,35.448444 29.098633,34.630974 
	C29.120220,33.505848 29.063707,32.752445 29.102142,31.605061 
	C29.146128,30.134518 29.095169,29.057955 29.044209,27.981392 
z"/>
<path fill="#FBDFB4" opacity="1.000000" stroke="none" 
	d="
M28.953957,42.004654 
	C29.061987,42.454903 29.170017,42.905151 29.389572,43.685577 
	C28.911299,44.360012 28.321497,44.704273 27.396114,45.134964 
	C26.612358,45.071026 26.164183,44.920666 25.369347,44.406631 
	C25.016586,43.697704 25.010485,43.352455 25.262663,42.899647 
	C26.010818,42.524052 26.500696,42.256008 27.317871,41.993900 
	C28.081434,42.001438 28.517696,42.003048 28.953957,42.004654 
z"/>
<path fill="#E0C6A0" opacity="1.000000" stroke="none" 
	d="
M38.369221,44.762489 
	C38.375057,41.858665 38.767063,41.628761 40.845314,43.378189 
	C40.177322,44.066086 39.444454,44.450649 38.369221,44.762489 
z"/>
<path fill="#E0C6A0" opacity="1.000000" stroke="none" 
	d="
M32.103565,44.205425 
	C31.918549,43.588058 32.026554,43.135769 32.580860,42.349987 
	C33.683319,42.012524 34.339478,42.008549 34.995640,42.004570 
	C34.992001,42.678577 34.988361,43.352589 34.979225,44.363098 
	C34.114685,44.589901 33.255634,44.480202 32.103565,44.205425 
z"/>
<path fill="#CAB291" opacity="1.000000" stroke="none" 
	d="
M21.069296,44.780781 
	C18.310675,44.883682 15.552052,44.986584 12.341196,45.196335 
	C11.618775,45.027508 11.348590,44.751827 10.943148,44.216202 
	C10.807892,43.956253 11.046714,43.874481 11.589091,43.917191 
	C14.753698,43.972237 17.375929,43.984577 20.248497,43.999435 
	C20.665743,44.002148 20.832645,44.002354 21.014891,44.197300 
	C21.030235,44.392044 21.069296,44.780781 21.069296,44.780781 
z"/>
<path fill="#E6CBA7" opacity="1.000000" stroke="none" 
	d="
M21.402313,44.817757 
	C21.069296,44.780781 21.030235,44.392044 21.014593,43.929554 
	C20.989220,43.289257 20.979488,43.111446 20.915094,42.560352 
	C18.007866,41.499359 15.155299,40.811649 12.023376,40.083542 
	C11.556676,40.025490 11.369330,40.007835 11.181986,39.990185 
	C11.113944,36.282955 11.045903,32.575726 11.443502,28.429344 
	C15.933784,27.897278 19.958426,27.804361 24.390644,27.825449 
	C26.207689,27.941839 27.617157,27.944227 29.026625,27.946615 
	C29.026625,27.946615 29.005787,27.976440 29.024998,27.978916 
	C29.095169,29.057955 29.146128,30.134518 28.766464,31.655979 
	C26.377607,33.584053 26.791452,34.507530 29.020533,35.002693 
	C29.080997,35.448444 29.141460,35.894196 28.741577,36.739075 
	C27.851007,38.754791 27.420790,40.371376 26.990572,41.987968 
	C26.500696,42.256008 26.010818,42.524052 24.970978,42.923370 
	C23.963783,43.581131 23.506554,44.107620 23.049324,44.634109 
	C22.611326,44.707649 22.173328,44.781193 21.402313,44.817757 
z"/>
<path fill="#404751" opacity="1.000000" stroke="none" 
	d="
M23.983067,27.711447 
	C19.958426,27.804361 15.933784,27.897278 11.444736,27.964767 
	C10.980330,27.939342 10.994806,27.491968 11.212144,27.177113 
	C11.894682,26.491549 12.359882,26.120840 12.825083,25.750132 
	C16.283823,25.717442 19.742561,25.684753 23.602011,26.047089 
	C23.996168,26.865223 23.989618,27.288336 23.983067,27.711447 
z"/>
<path fill="#FDEDD1" opacity="1.000000" stroke="none" 
	d="
M19.998158,43.996922 
	C17.375929,43.984577 14.753698,43.972237 11.699757,43.977882 
	C11.268044,43.995872 11.158503,43.539249 11.436069,43.278595 
	C11.882505,43.007462 12.051376,42.996986 12.643147,42.983604 
	C15.387635,42.999290 17.709225,43.017883 20.016239,43.276367 
	C20.001661,43.516262 19.998158,43.996922 19.998158,43.996922 
z"/>
<path fill="#D9C2A1" opacity="1.000000" stroke="none" 
	d="
M12.220248,42.986511 
	C12.051376,42.996986 11.882505,43.007462 11.462019,43.045242 
	C11.147613,42.299656 11.084823,41.526768 11.102009,40.372032 
	C11.369330,40.007835 11.556676,40.025490 11.949709,40.436256 
	C12.177015,41.548420 12.198632,42.267467 12.220248,42.986511 
z"/>
<path fill="#4A4E57" opacity="1.000000" stroke="none" 
	d="
M12.528299,25.599478 
	C12.359882,26.120840 11.894682,26.491549 11.220851,26.953478 
	C11.000845,26.735117 10.984332,26.425810 10.948809,25.887836 
	C11.367128,25.588871 11.799321,25.518848 12.528299,25.599478 
z"/>
<path fill="#F3D7B0" opacity="1.000000" stroke="none" 
	d="
M23.380028,44.708393 
	C23.506554,44.107620 23.963783,43.581131 24.712698,43.030922 
	C25.010485,43.352455 25.016586,43.697704 25.028622,44.300800 
	C24.593281,44.633324 24.152006,44.708004 23.380028,44.708393 
z"/>
<path fill="#474C55" opacity="1.000000" stroke="none" 
	d="
M24.390644,27.825449 
	C23.989618,27.288336 23.996168,26.865223 24.011570,26.122997 
	C25.326601,25.682058 26.632786,25.560236 28.321350,25.374784 
	C28.796606,25.895889 28.889479,26.480623 29.004490,27.505985 
	C27.617157,27.944227 26.207689,27.941839 24.390644,27.825449 
z"/>
<path fill="#D8BF9C" opacity="1.000000" stroke="none" 
	d="
M34.996910,41.540680 
	C34.339478,42.008549 33.683319,42.012524 32.701164,42.022335 
	C32.295685,37.688293 32.216194,33.348419 32.173595,28.552856 
	C32.210484,28.097172 32.631226,28.042841 32.806805,27.923317 
	C33.433361,27.901752 33.884335,27.999708 34.662003,28.214151 
	C34.991852,32.579357 34.995014,36.828072 34.996910,41.540680 
z"/>
<path fill="#F0D4AC" opacity="1.000000" stroke="none" 
	d="
M27.317871,41.993896 
	C27.420790,40.371376 27.851007,38.754791 28.652027,37.067471 
	C29.067812,38.393726 29.112795,39.790718 29.055868,41.596184 
	C28.517696,42.003048 28.081434,42.001438 27.317871,41.993896 
z"/>
<path fill="#F0D4AC" opacity="1.000000" stroke="none" 
	d="
M29.098633,34.630974 
	C26.791452,34.507530 26.377607,33.584053 28.671516,32.049957 
	C29.063707,32.752445 29.120220,33.505848 29.098633,34.630974 
z"/>
<path fill="#F3D7B0" opacity="1.000000" stroke="none" 
	d="
M20.248497,43.999435 
	C19.998158,43.996922 20.001661,43.516262 20.250093,43.243752 
	C20.498526,42.971237 20.969755,42.933640 20.969755,42.933640 
	C20.979488,43.111446 20.989220,43.289257 20.999249,43.734810 
	C20.832645,44.002354 20.665743,44.002148 20.248497,43.999435 
z"/>
<path fill="#FFFFFD" opacity="1.000000" stroke="none" 
	d="
M20.915094,42.560352 
	C20.969755,42.933640 20.498526,42.971237 20.264671,43.003853 
	C17.709225,43.017883 15.387635,42.999290 12.643147,42.983604 
	C12.198632,42.267467 12.177015,41.548420 12.229065,40.476662 
	C15.155299,40.811649 18.007866,41.499359 20.915094,42.560352 
z"/>
</svg>